<svg width="54" height="49" viewBox="0 0 54 49" fill="none" xmlns="http://www.w3.org/2000/svg">
<path d="M2 39.5C2 37.1703 2 36.0054 2.3806 35.0866C2.88807 33.8614 3.86144 32.8881 5.08658 32.3806C6.00544 32 7.17029 32 9.5 32H44.5C46.8297 32 47.9946 32 48.9134 32.3806C50.1386 32.8881 51.1119 33.8614 51.6194 35.0866C52 36.0054 52 37.1703 52 39.5C52 41.8297 52 42.9946 51.6194 43.9134C51.1119 45.1386 50.1386 46.1119 48.9134 46.6194C47.9946 47 46.8297 47 44.5 47H9.5C7.17029 47 6.00544 47 5.08658 46.6194C3.86144 46.1119 2.88807 45.1386 2.3806 43.9134C2 42.9946 2 41.8297 2 39.5Z" stroke="#293BDC" stroke-width="3"/>
<path d="M2 24.5C2 22.1703 2 21.0054 2.3806 20.0866C2.88807 18.8614 3.86144 17.8881 5.08658 17.3806C6.00544 17 7.17029 17 9.5 17H44.5C46.8297 17 47.9946 17 48.9134 17.3806C50.1386 17.8881 51.1119 18.8614 51.6194 20.0866C52 21.0054 52 22.1703 52 24.5C52 26.8297 52 27.9946 51.6194 28.9134C51.1119 30.1386 50.1386 31.1119 48.9134 31.6194C47.9946 32 46.8297 32 44.5 32H9.5C7.17029 32 6.00544 32 5.08658 31.6194C3.86144 31.1119 2.88807 30.1386 2.3806 28.9134C2 27.9946 2 26.8297 2 24.5Z" stroke="#293BDC" stroke-width="3"/>
<path d="M2 9.5C2 7.17029 2 6.00544 2.3806 5.08658C2.88807 3.86144 3.86144 2.88807 5.08658 2.3806C6.00544 2 7.17029 2 9.5 2H44.5C46.8297 2 47.9946 2 48.9134 2.3806C50.1386 2.88807 51.1119 3.86144 51.6194 5.08658C52 6.00544 52 7.17029 52 9.5C52 11.8297 52 12.9946 51.6194 13.9134C51.1119 15.1386 50.1386 16.1119 48.9134 16.6194C47.9946 17 46.8297 17 44.5 17H9.5C7.17029 17 6.00544 17 5.08658 16.6194C3.86144 16.1119 2.88807 15.1386 2.3806 13.9134C2 12.9946 2 11.8297 2 9.5Z" stroke="#293BDC" stroke-width="3"/>
<circle cx="9.5" cy="24.5" r="2.5" fill="#293BDC"/>
<circle cx="9.5" cy="9.5" r="2.5" fill="#293BDC"/>
<circle cx="9.5" cy="39.5" r="2.5" fill="#293BDC"/>
</svg>
