<svg width="180" height="43" viewBox="0 0 180 43" fill="none" xmlns="http://www.w3.org/2000/svg">
<g clip-path="url(#clip0_8_9)">
<path d="M179.676 1.90262C179.057 1.00813 178.323 0.380088 175.253 0.159322C174.451 0.0984204 171.792 0.010875 167.32 0.010875C155.571 0.010875 147.589 3.56217 143.498 10.5772C144.626 3.52538 137.722 -0.000543931 122.786 -0.000543931C105.242 -0.000543931 94.2932 7.03861 89.9391 21.1169C88.3171 26.3519 88.1465 30.6441 89.4273 33.9937L85.2718 34.2563C82.0368 34.5037 77.7782 34.7207 75.1695 34.7207C68.7504 34.7207 64.7693 33.6473 63.2263 31.5006C61.8437 29.5746 61.9812 25.9966 63.6082 20.7782C66.2818 12.134 72.9199 8.24395 83.5225 8.24395C89.0186 8.24395 94.3658 8.8187 94.3696 8.8187C95.1067 8.77302 95.4314 8.00795 95.3512 7.3761L95.2442 6.55013L94.8623 3.64591C94.6076 1.73768 93.1817 0.607199 90.5846 0.25448C88.2051 0.0946141 86.4329 -0.0119629 83.8242 -0.0119629H83.6791C69.8224 0.0184877 60.1657 4.55182 54.7091 13.588C56.7079 4.52898 50.2913 -0.000543931 35.4594 -0.000543931C27.2121 -0.000543931 21.2958 0.231642 17.7107 0.696013C14.9607 1.03604 13.2828 2.17033 12.6768 4.09886L11.5042 7.83286C11.2903 8.518 11.6226 8.85676 12.5011 8.85676H12.5278C13.1809 8.77302 15.6903 8.52942 19.9794 8.18685C25.6525 7.73517 29.8678 7.50933 32.6254 7.50933C40.7912 7.50933 44.2287 9.54571 42.9377 13.6185C42.8188 14.0437 42.5819 14.4268 42.2542 14.7237C41.9265 15.0207 41.5213 15.2194 41.0853 15.2971C33.3625 16.5658 27.2324 17.4832 22.695 18.049C9.93826 19.6629 2.56812 23.624 0.584584 29.9324C-2.13991 38.6057 4.68278 42.9436 21.0527 42.9462C29.216 42.9462 36.0679 42.478 41.6086 41.5416C44.8016 41.0087 46.4172 40.1942 47.0589 38.1464L50.1144 28.4783C49.7974 38.1388 56.6073 43.0033 70.5252 43.0033C76.556 43.0033 82.2736 42.8053 84.9701 42.3372C87.827 41.8423 89.1905 41.2257 89.8207 39.0789L90.4394 36.0339C93.4058 40.6446 99.9153 42.95 109.968 42.95C120.568 42.95 126.75 42.6544 128.515 42.0631C129.993 41.5949 130.906 40.8337 131.23 39.7793C131.291 39.5816 131.334 39.3792 131.36 39.1741L132.632 35.0709C132.854 34.3591 132.521 34.0165 131.651 34.047L124.864 34.3705C120.334 34.6243 116.789 34.7512 114.23 34.7512C109.413 34.7512 106.103 34.4238 104.3 33.7691C101.619 32.7541 100.346 30.7012 100.481 27.6105L121.972 24.8661C131.587 23.6278 138.025 20.6678 141.287 15.986L134.003 41.26C133.929 41.4479 133.905 41.6519 133.933 41.8519C133.961 42.052 134.041 42.2414 134.164 42.4019C134.435 42.7178 134.901 42.87 135.588 42.87H144.484C146.038 42.87 146.592 42.0707 146.775 41.4008L154.647 14.1247C155.682 10.5353 158.994 8.79586 164.776 8.79586C169.993 8.79586 173.943 8.84154 176.441 8.93289H176.635C177.047 8.93546 177.448 8.80307 177.776 8.55613C178.105 8.30919 178.343 7.96142 178.453 7.56642L179.836 3.80578C179.97 3.50018 180.025 3.16623 179.997 2.83399C179.969 2.50176 179.859 2.18169 179.676 1.90262ZM36.2844 34.7359C33.5166 35.1775 29.5292 35.3982 24.3221 35.3982C15.2829 35.3982 11.3362 33.5801 12.482 29.9438C13.3031 27.3364 15.6712 25.7568 19.6089 25.2354L40.1649 22.4567L36.2844 34.7359ZM131.345 12.6326C130.479 15.4239 126.459 17.3372 119.283 18.3726L102.153 20.7972L102.585 19.4117C104.003 14.8137 106.017 11.6811 108.627 10.0139C111.237 8.34672 115.477 7.5144 121.346 7.51694C129.074 7.50679 132.407 9.21202 131.345 12.6326Z" fill="#83B81A"/>
</g>
<defs>
<clipPath id="clip0_8_9">
<rect width="180" height="43" fill="white"/>
</clipPath>
</defs>
</svg>
