<svg width="187" height="54" viewBox="0 0 187 54" fill="none" xmlns="http://www.w3.org/2000/svg">
<g clip-path="url(#clip0_98_92)">
<path fill-rule="evenodd" clip-rule="evenodd" d="M6.69182 44.9547H3.87058V53.9178H2.83382V44.9547H0.0125732V44.0103H6.69182V44.9547Z" fill="#1D1D1B"/>
<path fill-rule="evenodd" clip-rule="evenodd" d="M16.0163 53.9114H15.0361V49.6835C15.0361 48.4791 14.4832 47.8769 13.3899 47.8769C13.159 47.8619 12.9275 47.8965 12.7109 47.9784C12.4943 48.0604 12.2973 48.1878 12.1332 48.3523C11.9733 48.5324 11.8509 48.743 11.7732 48.9716C11.6955 49.2003 11.6641 49.4423 11.6808 49.6835V53.9114H10.7257V44.0103H11.7059V47.8135C11.9401 47.5435 12.2304 47.3291 12.5563 47.1855C12.8822 47.042 13.2355 46.9729 13.5909 46.9831C13.9178 46.9654 14.2447 47.0165 14.5508 47.1333C14.857 47.2501 15.1357 47.4299 15.3691 47.6614C15.8113 48.1712 16.037 48.836 15.9975 49.5123L16.0163 53.9114Z" fill="#1D1D1B"/>
<path fill-rule="evenodd" clip-rule="evenodd" d="M25.9629 50.7545H21.42C21.3828 51.3807 21.5603 52.0007 21.9227 52.5104C22.1081 52.72 22.3373 52.8855 22.5937 52.9951C22.8501 53.1047 23.1274 53.1556 23.4056 53.1442C23.7356 53.1432 24.062 53.0741 24.3645 52.9411C24.6671 52.8081 24.9395 52.6141 25.1649 52.3709L25.8373 52.9668C25.5336 53.2906 25.1764 53.5587 24.7817 53.7591C24.3364 53.9473 23.8567 54.038 23.3742 54.0253C22.9792 54.0494 22.5838 53.9857 22.2157 53.839C21.8477 53.6922 21.5161 53.4659 21.2441 53.1759C20.6515 52.4255 20.362 51.4768 20.4336 50.52C20.3703 49.5927 20.6328 48.6726 21.175 47.9211C21.4151 47.6154 21.7238 47.3716 22.0755 47.2096C22.4272 47.0476 22.812 46.9721 23.1982 46.9893C23.5802 46.9722 23.9609 47.0433 24.3115 47.1971C24.6622 47.3509 24.9734 47.5833 25.2215 47.8767C25.7483 48.5681 26.0114 49.4274 25.9629 50.2981V50.7545ZM24.9764 50.0066C24.969 49.6174 24.899 49.2321 24.7691 48.8656C24.6312 48.5621 24.41 48.305 24.1315 48.1247C23.853 47.9444 23.5291 47.8486 23.1982 47.8486C22.8674 47.8486 22.5435 47.9444 22.265 48.1247C21.9865 48.305 21.7652 48.5621 21.6274 48.8656C21.503 49.2333 21.4352 49.6181 21.4263 50.0066H24.9764Z" fill="#1D1D1B"/>
<path fill-rule="evenodd" clip-rule="evenodd" d="M41.0431 53.9112H40.0566V53.2456C39.801 53.4974 39.4966 53.6932 39.1626 53.8209C38.8285 53.9485 38.4719 54.0051 38.1151 53.9873C37.7746 54.0164 37.4319 53.9752 37.1078 53.8662C36.7837 53.7572 36.485 53.5827 36.23 53.3534C36.0568 53.1706 35.9215 52.9548 35.8319 52.7186C35.7424 52.4825 35.7004 52.2306 35.7085 51.9779C35.6985 51.7039 35.7497 51.4311 35.8585 51.1798C35.9673 50.9285 36.1308 50.7051 36.3369 50.5263C36.8302 50.1495 37.4408 49.9629 38.0585 50.0002H40.0818V49.3663C40.0818 48.3648 39.51 47.864 38.3601 47.864C38.0351 47.8394 37.7092 47.8979 37.4127 48.0342C37.1161 48.1705 36.8584 48.3801 36.6636 48.6437L35.9913 48.0098C36.2551 47.6565 36.6061 47.3789 37.0092 47.2048C37.4325 47.0533 37.8796 46.9803 38.3287 46.9893C40.1257 46.9893 41.0243 47.7499 41.0243 49.2712L41.0431 53.9112ZM40.0566 51.4961V50.7545H38.1716C37.1663 50.7545 36.6636 51.1602 36.6636 51.9652C36.6636 52.7702 37.1788 53.1379 38.2156 53.1379C38.757 53.1889 39.2966 53.0226 39.7173 52.6751C39.9797 52.3425 40.1016 51.9189 40.0566 51.4961Z" fill="#1D1D1B"/>
<path fill-rule="evenodd" clip-rule="evenodd" d="M50.3174 47.6296L49.5948 48.3776C49.4437 48.2188 49.2622 48.0925 49.0613 48.0065C48.8604 47.9204 48.6443 47.8763 48.4261 47.8768C48.2032 47.8707 47.9817 47.9154 47.7783 48.0076C47.5749 48.0998 47.3947 48.2371 47.2511 48.4093C46.9509 48.7755 46.7944 49.2401 46.8113 49.7151V53.9113H45.8311V47.0718H46.8113V47.9085C47.0173 47.6013 47.3002 47.3545 47.6312 47.1931C47.9622 47.0317 48.3297 46.9614 48.6963 46.9894C48.9957 46.9769 49.2945 47.0274 49.5736 47.1376C49.8526 47.2478 50.1059 47.4153 50.3174 47.6296Z" fill="#1D1D1B"/>
<path fill-rule="evenodd" clip-rule="evenodd" d="M56.5506 53.9113H55.8657C55.6296 53.9218 55.3943 53.8789 55.1768 53.7856C54.9594 53.6924 54.7654 53.5513 54.609 53.3725C54.3086 53.0214 54.1514 52.5683 54.1692 52.1048V47.8768H53.2958V47.1098H54.144V45.0054H55.1305V47.1415H56.5506V47.9085H55.1305V52.0794C55.1305 52.7514 55.4321 53.081 56.0479 53.081H56.5506V53.9113Z" fill="#1D1D1B"/>
<path fill-rule="evenodd" clip-rule="evenodd" d="M71.8568 50.4947C71.9429 51.4765 71.6478 52.4537 71.0337 53.2203C70.5137 53.7202 69.823 53.9991 69.1047 53.9991C68.3864 53.9991 67.6957 53.7202 67.1757 53.2203C66.5616 52.4537 66.2665 51.4765 66.3526 50.4947C66.2665 49.5128 66.5616 48.5356 67.1757 47.769C67.6957 47.2691 68.3864 46.9902 69.1047 46.9902C69.823 46.9902 70.5137 47.2691 71.0337 47.769C71.6478 48.5356 71.9429 49.5128 71.8568 50.4947ZM70.8703 50.4947C70.8703 49.4424 70.6881 48.7388 70.3362 48.3775C70.1724 48.211 69.9762 48.0806 69.7599 47.9944C69.5436 47.9082 69.312 47.8682 69.0796 47.8768C68.8533 47.8723 68.6285 47.9144 68.4189 48.0005C68.2094 48.0866 68.0194 48.2149 67.8606 48.3775C67.4961 48.7515 67.3139 49.4551 67.3139 50.4947C67.3139 51.5342 67.4961 52.2378 67.8606 52.6055C68.0185 52.7694 68.2083 52.8985 68.4181 52.9846C68.6279 53.0708 68.8531 53.1122 69.0796 53.1062C69.3128 53.1128 69.5449 53.0706 69.7612 52.9822C69.9774 52.8938 70.1732 52.7613 70.3362 52.5928C70.6944 52.2378 70.8703 51.5406 70.8703 50.4947Z" fill="#1D1D1B"/>
<path fill-rule="evenodd" clip-rule="evenodd" d="M78.9948 47.8768H77.5559V53.9113H76.5694V47.8768H75.7086V47.1098H76.5694V45.842C76.5548 45.3812 76.7066 44.9306 76.9967 44.5743C77.1536 44.3963 77.3477 44.2556 77.565 44.1625C77.7824 44.0693 78.0175 44.0259 78.2534 44.0355H78.9697V44.8976H78.4356C77.8073 44.8976 77.5308 45.2335 77.5308 45.8991V47.1668H78.9697L78.9948 47.8768Z" fill="#1D1D1B"/>
<path fill-rule="evenodd" clip-rule="evenodd" d="M93.9932 50.7545H89.4503C89.4118 51.3818 89.5918 52.0029 89.9593 52.5104C90.142 52.7216 90.3698 52.8884 90.6255 52.9982C90.8812 53.1079 91.1583 53.1579 91.4359 53.1442C91.7667 53.1426 92.0938 53.0732 92.3973 52.9403C92.7008 52.8074 92.9744 52.6137 93.2015 52.3709L93.8675 52.9668C93.5647 53.2889 93.2099 53.5568 92.8182 53.7591C92.3708 53.9472 91.889 54.038 91.4045 54.0253C91.0095 54.0485 90.6144 53.9845 90.2465 53.8378C89.8786 53.6911 89.5469 53.4652 89.2744 53.1759C88.6818 52.4255 88.3922 51.4768 88.4638 50.52C88.4087 49.5907 88.6777 48.6713 89.2241 47.9211C89.4646 47.6158 89.7733 47.3722 90.1249 47.2103C90.4766 47.0484 90.8612 46.9726 91.2474 46.9893C91.6293 46.9722 92.0101 47.0433 92.3607 47.1971C92.7113 47.3509 93.0225 47.5833 93.2706 47.8767C93.7974 48.5681 94.0605 49.4274 94.0121 50.2981L93.9932 50.7545ZM92.9942 50.0066C92.9853 49.6181 92.9175 49.2333 92.7931 48.8656C92.6552 48.5621 92.4339 48.305 92.1555 48.1247C91.877 47.9444 91.5531 47.8486 91.2222 47.8486C90.8914 47.8486 90.5675 47.9444 90.289 48.1247C90.0105 48.305 89.7892 48.5621 89.6514 48.8656C89.5215 49.2321 89.4515 49.6174 89.444 50.0066H92.9942Z" fill="#1D1D1B"/>
<path fill-rule="evenodd" clip-rule="evenodd" d="M100.874 53.9114H100.157C99.9249 53.9248 99.6924 53.8876 99.4756 53.8023C99.2587 53.717 99.0626 53.5856 98.9006 53.417C98.6041 53.042 98.4524 52.5714 98.4734 52.0922V44.0103H99.4598V52.0478C99.4598 52.7197 99.7614 53.0493 100.365 53.0493H100.899L100.874 53.9114Z" fill="#1D1D1B"/>
<path fill-rule="evenodd" clip-rule="evenodd" d="M110.091 50.7546H105.561C105.524 51.3807 105.701 52.0007 106.064 52.5104C106.247 52.7213 106.475 52.8878 106.73 52.9975C106.986 53.1073 107.263 53.1574 107.54 53.1443C107.871 53.1434 108.199 53.0743 108.502 52.9414C108.806 52.8084 109.079 52.6143 109.306 52.371L109.978 52.9668C109.675 53.2906 109.317 53.5587 108.923 53.7591C108.477 53.9473 107.998 54.0381 107.515 54.0254C107.119 54.0486 106.723 53.9846 106.354 53.838C105.985 53.6913 105.653 53.4654 105.379 53.176C104.792 52.4225 104.506 51.4755 104.575 50.52C104.517 49.6013 104.78 48.6912 105.316 47.9465C105.556 47.6408 105.865 47.397 106.216 47.235C106.568 47.073 106.953 46.9975 107.339 47.0147C107.721 46.9976 108.102 47.0687 108.453 47.2225C108.803 47.3763 109.114 47.6087 109.362 47.9021C109.886 48.5951 110.149 49.4533 110.104 50.3235L110.091 50.7546ZM109.105 50.0066C109.097 49.6174 109.027 49.2321 108.898 48.8656C108.76 48.5622 108.538 48.305 108.26 48.1248C107.981 47.9445 107.658 47.8486 107.327 47.8486C106.996 47.8486 106.672 47.9445 106.393 48.1248C106.115 48.305 105.894 48.5622 105.756 48.8656C105.631 49.2333 105.564 49.6181 105.555 50.0066H109.105Z" fill="#1D1D1B"/>
<path fill-rule="evenodd" clip-rule="evenodd" d="M119.384 52.9857C119.101 53.3126 118.757 53.5816 118.373 53.7781C117.99 53.9357 117.579 54.0112 117.166 54C116.771 54.0181 116.377 53.9486 116.011 53.7964C115.645 53.6441 115.317 53.4129 115.049 53.1189C114.487 52.3604 114.183 51.4386 114.183 50.4914C114.183 49.5442 114.487 48.6225 115.049 47.864C115.318 47.5722 115.647 47.3428 116.012 47.1918C116.378 47.0407 116.772 46.9716 117.166 46.9893C117.58 46.9749 117.991 47.0506 118.373 47.2111C118.76 47.4034 119.104 47.673 119.384 48.0035L118.712 48.6374C118.526 48.4026 118.291 48.2122 118.024 48.0796C117.757 47.947 117.464 47.8756 117.166 47.8704C116.863 47.8584 116.561 47.9242 116.29 48.0617C116.019 48.1991 115.786 48.4037 115.614 48.6564C115.326 49.2242 115.175 49.8532 115.175 50.4914C115.175 51.1297 115.326 51.7587 115.614 52.3265C115.788 52.5789 116.021 52.7829 116.294 52.9192C116.566 53.0556 116.869 53.1199 117.173 53.1062C117.477 53.1028 117.778 53.0311 118.051 52.8963C118.325 52.7614 118.566 52.5668 118.756 52.3265L119.384 52.9857Z" fill="#1D1D1B"/>
<path fill-rule="evenodd" clip-rule="evenodd" d="M126.252 53.9113H125.555C125.319 53.9209 125.084 53.8775 124.866 53.7844C124.649 53.6912 124.455 53.5505 124.298 53.3725C124.002 53.0192 123.847 52.5671 123.864 52.1048V47.8768H123.016V47.1098H123.864V45.0054H124.851V47.1415H126.284V47.9085H124.851V52.0794C124.851 52.7514 125.153 53.081 125.762 53.081H126.284L126.252 53.9113Z" fill="#1D1D1B"/>
<path fill-rule="evenodd" clip-rule="evenodd" d="M135.093 47.6297L134.37 48.3777C134.221 48.2187 134.04 48.0923 133.84 48.0062C133.64 47.9201 133.425 47.8761 133.208 47.8769C132.984 47.8698 132.761 47.9141 132.557 48.0063C132.352 48.0985 132.171 48.2363 132.027 48.4094C131.728 48.7762 131.574 49.2409 131.593 49.7151V53.9114H130.607V47.0719H131.593V47.9086C131.798 47.6 132.08 47.3521 132.412 47.1905C132.743 47.0289 133.111 46.9595 133.478 46.9895C133.776 46.9779 134.074 47.0288 134.352 47.1389C134.63 47.2491 134.882 47.4162 135.093 47.6297Z" fill="#1D1D1B"/>
<path fill-rule="evenodd" clip-rule="evenodd" d="M143.89 50.4947C143.984 51.4842 143.691 52.4717 143.073 53.2457C142.553 53.7456 141.862 54.0245 141.144 54.0245C140.426 54.0245 139.735 53.7456 139.215 53.2457C138.603 52.4782 138.31 51.501 138.398 50.5201C138.31 49.5391 138.603 48.562 139.215 47.7944C139.735 47.2945 140.426 47.0156 141.144 47.0156C141.862 47.0156 142.553 47.2945 143.073 47.7944C143.678 48.5554 143.971 49.5222 143.89 50.4947ZM142.903 50.4947C142.903 49.4425 142.727 48.7389 142.369 48.3776C142.041 48.0561 141.601 47.8764 141.144 47.8764C140.686 47.8764 140.247 48.0561 139.919 48.3776C139.554 48.7515 139.372 49.4552 139.372 50.4947C139.372 51.5343 139.554 52.2379 139.919 52.6055C140.077 52.7691 140.267 52.898 140.476 52.9841C140.686 53.0703 140.911 53.1119 141.138 53.1063C141.371 53.114 141.603 53.0723 141.82 52.9839C142.036 52.8955 142.232 52.7622 142.394 52.5928C142.74 52.2379 142.909 51.5406 142.909 50.4947H142.903Z" fill="#1D1D1B"/>
<path fill-rule="evenodd" clip-rule="evenodd" d="M153.685 53.9113H152.686V49.7023C152.686 48.4853 152.133 47.8767 151.028 47.8767C150.797 47.8609 150.565 47.8951 150.348 47.9771C150.131 48.0591 149.935 48.187 149.771 48.3521C149.457 48.7279 149.299 49.2118 149.331 49.7023V53.9113H148.351V47.0717H149.331V47.8197C149.565 47.5497 149.856 47.3353 150.181 47.1917C150.507 47.0482 150.861 46.979 151.216 46.9893C151.531 46.9714 151.846 47.0184 152.142 47.1274C152.438 47.2363 152.708 47.4051 152.938 47.6232C153.177 47.8747 153.363 48.1734 153.483 48.5006C153.603 48.8278 153.655 49.1765 153.635 49.5248L153.685 53.9113Z" fill="#1D1D1B"/>
<path fill-rule="evenodd" clip-rule="evenodd" d="M159.523 45.1259H158.417V43.9976H159.523V45.1259ZM159.46 53.9114H158.473V47.0719H159.46V53.9114Z" fill="#1D1D1B"/>
<path fill-rule="evenodd" clip-rule="evenodd" d="M169.155 52.9857C168.871 53.3126 168.528 53.5816 168.144 53.7781C167.761 53.9351 167.35 54.0107 166.937 54C166.542 54.0181 166.147 53.9486 165.782 53.7964C165.416 53.6441 165.087 53.4129 164.82 53.1189C164.257 52.3604 163.953 51.4386 163.953 50.4914C163.953 49.5442 164.257 48.6225 164.82 47.864C165.089 47.5722 165.417 47.3428 165.783 47.1918C166.149 47.0407 166.542 46.9716 166.937 46.9893C167.35 46.9755 167.762 47.0512 168.144 47.2111C168.531 47.4034 168.875 47.673 169.155 48.0035L168.483 48.6374C168.297 48.4026 168.062 48.2122 167.795 48.0796C167.528 47.947 167.235 47.8756 166.937 47.8704C166.633 47.8566 166.331 47.921 166.058 48.0573C165.786 48.1937 165.552 48.3976 165.379 48.65C165.09 49.2178 164.939 49.8469 164.939 50.4851C164.939 51.1233 165.09 51.7524 165.379 52.3202C165.552 52.5726 165.786 52.7765 166.058 52.9129C166.331 53.0492 166.633 53.1136 166.937 53.0998C167.236 53.0909 167.528 53.0166 167.795 52.8819C168.062 52.7473 168.297 52.5556 168.483 52.3202L169.155 52.9857Z" fill="#1D1D1B"/>
<path fill-rule="evenodd" clip-rule="evenodd" d="M178.279 51.9147C178.289 52.2124 178.225 52.508 178.093 52.7747C177.962 53.0414 177.766 53.2709 177.525 53.4423C176.939 53.8386 176.243 54.0342 175.539 54.0001C175.036 54.0275 174.533 53.9543 174.059 53.7845C173.584 53.6148 173.148 53.352 172.774 53.0113L173.403 52.3774C173.676 52.6507 174.004 52.8626 174.365 52.9992C174.726 53.1357 175.111 53.1938 175.495 53.1697C176.689 53.1697 177.286 52.7641 177.286 51.959C177.286 51.3252 176.915 51.0209 176.167 50.9575L175.055 50.8561C173.719 50.7335 173.049 50.1229 173.045 49.0242C173.034 48.7367 173.094 48.451 173.219 48.1924C173.344 47.9337 173.53 47.71 173.761 47.5409C174.281 47.1631 174.912 46.9733 175.552 47.0021C176.42 46.9546 177.278 47.2146 177.977 47.7374L177.349 48.3713C176.829 47.9935 176.198 47.8037 175.558 47.8325C174.553 47.8325 174.056 48.2065 174.056 48.9545C174.056 49.5503 174.446 49.8863 175.231 49.956L176.312 50.0574C177.613 50.1842 178.279 50.799 178.279 51.9147Z" fill="#1D1D1B"/>
<path fill-rule="evenodd" clip-rule="evenodd" d="M171.134 19.3776L178.046 20.1827C177.699 21.5829 177.056 22.8911 176.161 24.0176C175.268 25.1222 174.124 25.9922 172.825 26.5531C171.19 27.2014 169.441 27.5077 167.685 27.4532C165.992 27.4909 164.301 27.299 162.658 26.8827C161.386 26.5298 160.21 25.8929 159.215 25.0191C158.265 24.1733 157.493 23.1428 156.947 21.9892C156.345 20.5337 156.066 18.963 156.13 17.3873C156.071 15.6684 156.413 13.9595 157.129 12.3986C157.624 11.4081 158.303 10.5218 159.127 9.78706C159.887 9.05954 160.767 8.47175 161.728 8.05024C163.467 7.398 165.315 7.09441 167.17 7.15647C170.261 7.15647 172.615 7.72274 174.232 8.85526C175.911 10.058 177.121 11.813 177.657 13.8185L170.827 14.7503C170.675 13.9979 170.257 13.3266 169.652 12.8614C168.988 12.4037 168.192 12.1808 167.39 12.2275C166.833 12.2114 166.281 12.3228 165.774 12.5534C165.267 12.784 164.818 13.1277 164.461 13.5586C163.726 14.4334 163.356 15.7709 163.356 17.5584C163.264 18.8676 163.658 20.1643 164.461 21.1969C164.811 21.6037 165.245 21.9281 165.732 22.1471C166.22 22.3662 166.749 22.4746 167.283 22.4646C168.139 22.4925 168.98 22.2291 169.67 21.7166C170.393 21.1143 170.906 20.2948 171.134 19.3776ZM145.844 7.56216H153.101V26.9651H145.844V7.56216ZM145.844 0H153.101V5.07102H145.844V0ZM121.967 7.56216H128.728V10.7315C129.553 9.61092 130.596 8.67252 131.794 7.97418C132.963 7.38649 134.258 7.09908 135.564 7.13746C136.434 7.08743 137.304 7.22621 138.116 7.54442C138.928 7.86264 139.662 8.35287 140.27 8.98204C141.427 10.178 142.005 12.0606 142.005 14.6299V26.9651H134.678V16.2906C134.678 15.0736 134.458 14.2179 134.018 13.7171C133.786 13.4579 133.498 13.2546 133.178 13.1218C132.857 12.9891 132.511 12.9305 132.165 12.9501C131.756 12.9365 131.349 13.0193 130.977 13.1921C130.605 13.3648 130.278 13.6227 130.022 13.9453C129.473 14.6299 129.201 15.8554 129.205 17.6218V26.9398H121.942L121.967 7.56216ZM104.694 17.2985C104.694 19.0269 105.033 20.3052 105.712 21.1335C106.017 21.5319 106.41 21.8537 106.859 22.0736C107.308 22.2935 107.801 22.4057 108.301 22.4012C108.793 22.4144 109.282 22.3105 109.727 22.0979C110.172 21.8854 110.562 21.5702 110.864 21.1778C111.543 20.3601 111.882 19.0543 111.882 17.2478C111.882 15.5575 111.543 14.3087 110.864 13.5016C110.572 13.108 110.192 12.7885 109.756 12.5684C109.32 12.3484 108.839 12.2338 108.351 12.2338C107.847 12.2269 107.348 12.3377 106.893 12.5577C106.439 12.7776 106.041 13.1007 105.731 13.5016C105.039 14.3299 104.694 15.5955 104.694 17.2985ZM97.4177 17.2985C97.3741 15.9417 97.6121 14.5907 98.1163 13.3321C98.6205 12.0735 99.3799 10.9351 100.346 9.98991C102.294 8.06292 104.926 7.10154 108.244 7.10576C112.039 7.10576 114.904 8.23195 116.84 10.4843C118.416 12.348 119.249 14.7359 119.177 17.1844C119.223 18.5449 118.989 19.9002 118.489 21.1648C117.989 22.4293 117.235 23.5755 116.274 24.531C114.343 26.4327 111.673 27.3835 108.263 27.3835C105.222 27.3835 102.761 26.5912 100.88 25.0065C99.7551 24.0786 98.8561 22.9031 98.2516 21.5703C97.6471 20.2375 97.3532 18.7827 97.3926 17.3175L97.4177 17.2985ZM82.8654 7.56216H89.6577V10.7315C90.1013 9.64106 90.7921 8.67063 91.6747 7.89811C92.4282 7.36664 93.3319 7.09536 94.2509 7.12478C95.4869 7.16919 96.6932 7.51967 97.7633 8.14532L95.5076 13.4445C94.8716 13.1331 94.183 12.946 93.478 12.8931C93.037 12.8803 92.6004 12.9849 92.2122 13.1963C91.824 13.4077 91.4977 13.7185 91.2663 14.0974C90.5123 15.2321 90.1415 17.3556 90.1415 20.4362V26.9651H82.8654V7.56216ZM56.1044 7.09309H63.8455V26.9651H72.4664V7.09309H80.2075V0H56.1044V7.09309ZM38.1339 6.33877H42.1553C44.166 6.33877 45.6237 7.23888 45.6237 9.14685C45.6237 11.0548 44.1974 11.6824 41.5332 11.6824H38.1339V6.33877ZM40.7666 17.6028C44.788 17.6028 45.3724 18.7628 45.3724 22.2808C45.3093 23.8652 45.4551 25.4511 45.8059 26.9968H54.5398V26.1728C53.5156 26.1728 53.6225 24.9748 53.6225 21.4567C53.6225 16.0308 51.9448 15.3588 49.1675 14.3066C52.2338 13.4509 53.5659 10.8266 53.5659 7.72696C53.591 2.4531 50.7007 0 41.9354 0H29.5319V26.9651H38.1339V17.5711L40.7666 17.6028ZM16.519 17.8246H11.0776L13.7418 8.17068L16.519 17.8246ZM8.44488 26.9651L9.42509 23.4091H18.0145L19.0387 26.9651H27.6469L18.2218 0H9.42509L0 26.9651H8.44488Z" fill="#1D1D1B"/>
<path fill-rule="evenodd" clip-rule="evenodd" d="M182.57 8.24044C182.092 8.2388 181.619 8.14168 181.179 7.95467C180.738 7.76767 180.339 7.49449 180.003 7.15091C179.668 6.80733 179.404 6.40014 179.225 5.95286C179.047 5.50558 178.958 5.02707 178.964 4.54494C178.943 4.05477 179.021 3.56553 179.193 3.10663C179.365 2.64773 179.627 2.22864 179.964 1.87458C180.301 1.52051 180.705 1.23878 181.152 1.04632C181.599 0.853861 182.081 0.754648 182.567 0.754648C183.053 0.754648 183.535 0.853861 183.982 1.04632C184.429 1.23878 184.833 1.52051 185.17 1.87458C185.507 2.22864 185.769 2.64773 185.941 3.10663C186.113 3.56553 186.191 4.05477 186.171 4.54494C186.176 5.02653 186.088 5.50453 185.91 5.9514C185.731 6.39827 185.467 6.80517 185.133 7.14867C184.798 7.49217 184.399 7.76548 183.96 7.95285C183.52 8.14023 183.048 8.23797 182.57 8.24044ZM183.62 4.95062C184.462 4.88723 184.914 4.51958 184.914 3.61948C184.937 3.37806 184.899 3.13462 184.802 2.9126C184.705 2.69057 184.553 2.49742 184.361 2.35172C183.952 2.1705 183.505 2.09427 183.06 2.12986H180.742V7.0234H181.678V4.94428H182.62L183.689 7.01072H184.776L183.62 4.95062ZM181.678 4.20898V2.81445H182.847C183.312 2.81445 183.997 2.81445 183.997 3.44833C183.997 4.08221 183.626 4.1963 183.092 4.18363L181.678 4.20898ZM182.57 9.09617C183.755 9.08279 184.887 8.59637 185.717 7.74339C186.547 6.8904 187.008 5.74034 187 4.54494C187.022 3.9435 186.924 3.34367 186.712 2.78134C186.499 2.21901 186.176 1.70574 185.762 1.27222C185.348 0.838708 184.852 0.493862 184.303 0.258317C183.754 0.0227714 183.164 -0.0986328 182.567 -0.0986328C181.97 -0.0986328 181.38 0.0227714 180.831 0.258317C180.282 0.493862 179.786 0.838708 179.372 1.27222C178.958 1.70574 178.635 2.21901 178.422 2.78134C178.21 3.34367 178.112 3.9435 178.134 4.54494C178.126 5.74083 178.588 6.89118 179.42 7.74334C180.252 8.5955 181.385 9.07979 182.57 9.08984V9.09617Z" fill="#1D1D1B"/>
<path d="M0 34.052H178.147V37.6461H0V34.052Z" fill="#00AAC8"/>
</g>
<defs>
<clipPath id="clip0_98_92">
<rect width="187" height="54" fill="white"/>
</clipPath>
</defs>
</svg>
