<svg width="204" height="50" viewBox="0 0 204 50" fill="none" xmlns="http://www.w3.org/2000/svg">
<g clip-path="url(#clip0_98_36)">
<path d="M200 14.2839H199.317V15.4071H200C200.078 15.4156 200.157 15.4074 200.232 15.3831C200.307 15.3587 200.376 15.3187 200.434 15.2658C200.493 15.2128 200.54 15.148 200.572 15.0756C200.604 15.0032 200.62 14.9248 200.62 14.8455C200.62 14.7662 200.604 14.6878 200.572 14.6154C200.54 14.543 200.493 14.4782 200.434 14.4253C200.376 14.3723 200.307 14.3323 200.232 14.308C200.157 14.2836 200.078 14.2754 200 14.2839ZM200.586 17.8224L199.787 16.1408H199.317V17.8224H198.325V13.4983H200.129C200.315 13.4869 200.501 13.5135 200.677 13.5765C200.853 13.6394 201.014 13.7375 201.151 13.8649C201.288 13.9922 201.398 14.1461 201.475 14.3174C201.552 14.4887 201.593 14.6738 201.597 14.8617C201.595 15.1133 201.516 15.3581 201.371 15.5626C201.226 15.7672 201.021 15.9215 200.786 16.0044L201.713 17.8354L200.586 17.8224ZM199.839 12.4984C199.22 12.5061 198.617 12.6982 198.106 13.0506C197.595 13.4029 197.199 13.8998 196.968 14.4786C196.737 15.0574 196.68 15.6922 196.806 16.3031C196.932 16.9141 197.235 17.4738 197.675 17.9118C198.116 18.3499 198.676 18.6467 199.284 18.7648C199.891 18.883 200.52 18.8172 201.091 18.5758C201.662 18.3344 202.149 17.9281 202.492 17.4082C202.834 16.8882 203.016 16.2778 203.014 15.6538C203.022 15.2336 202.944 14.8163 202.786 14.4272C202.629 14.0381 202.394 13.6853 202.098 13.3902C201.801 13.0952 201.447 12.864 201.059 12.7107C200.671 12.5574 200.256 12.4852 199.839 12.4984ZM199.839 19.7312C199.044 19.7083 198.274 19.4497 197.624 18.988C196.974 18.5262 196.474 17.8817 196.185 17.1349C195.897 16.3881 195.833 15.5722 196.002 14.7892C196.171 14.0061 196.565 13.2905 197.135 12.7319C197.705 12.1733 198.426 11.7964 199.207 11.6483C199.989 11.5003 200.796 11.5875 201.528 11.8993C202.261 12.211 202.886 12.7334 203.325 13.4012C203.765 14.0689 204 14.8525 204 15.6538C203.992 16.197 203.879 16.7333 203.666 17.2322C203.452 17.731 203.144 18.1827 202.757 18.5613C202.371 18.94 201.914 19.2382 201.414 19.4389C200.913 19.6396 200.378 19.739 199.839 19.7312Z" fill="#F58220"/>
<path d="M111.433 20.8934V9.60913H111.246C109.507 10.4402 102.744 13.0243 102.37 21.0687V30.4441C102.37 36.2875 97.9775 41.0012 92.5733 41.0012C87.1691 41.0012 82.7826 36.2615 82.7826 30.4376V25.9706C82.6796 16.3161 73.7134 14.0696 73.7134 14.0696V30.5155C73.7713 41.1894 82.2094 49.8636 92.5733 49.8636C102.937 49.8636 111.433 41.2154 111.433 30.5155V20.8934Z" fill="#F58220"/>
<path d="M62.9436 11.2908C57.8584 11.2767 52.9582 13.2125 49.2367 16.7057C46.8341 15.0566 43.1176 14.8813 43.1176 14.8813V49.8897H52.1739V30.7169C52.2146 27.8784 53.372 25.1724 55.3916 23.1939C57.4112 21.2154 60.1276 20.1264 62.9436 20.1663C65.5369 20.1536 68.0495 21.0746 70.029 22.7634V12.5764C67.7628 11.7214 65.3633 11.2816 62.9436 11.2778" fill="#F58220"/>
<path d="M19.6908 41.2544C16.8372 41.2943 14.0848 40.1902 12.0386 38.1849C9.99243 36.1797 8.8201 33.4373 8.77939 30.561C8.8201 27.6846 9.99243 24.9423 12.0386 22.9371C14.0848 20.9318 16.8372 19.8277 19.6908 19.8676C21.107 19.8427 22.5141 20.0997 23.8316 20.6241C25.149 21.1484 26.3508 21.9297 27.368 22.9231C28.3853 23.9165 29.1981 25.1026 29.7597 26.4132C30.3213 27.7239 30.6208 29.1334 30.6409 30.561C30.6208 31.9886 30.3213 33.3981 29.7597 34.7087C29.1981 36.0194 28.3853 37.2055 27.368 38.1989C26.3508 39.1923 25.149 39.9736 23.8316 40.4979C22.5141 41.0223 21.107 41.2793 19.6908 41.2544ZM19.6908 11.2908C8.81804 11.2908 0 19.926 0 30.587C0 41.2479 8.81804 49.8832 19.6908 49.8832C23.9956 49.8925 28.1877 48.4962 31.6393 45.9032C33.6747 49.2469 39.3688 49.8832 39.3688 49.8832V30.587C39.3688 19.926 30.5507 11.2908 19.6715 11.2908" fill="#F58220"/>
<path d="M176.734 41.2544C175.31 41.3044 173.89 41.0649 172.56 40.55C171.229 40.0352 170.016 39.2555 168.99 38.2576C167.965 37.2597 167.15 36.0639 166.593 34.7416C166.036 33.4193 165.749 31.9975 165.749 30.561C165.749 29.1245 166.036 27.7027 166.593 26.3804C167.15 25.0581 167.965 23.8623 168.99 22.8644C170.016 21.8665 171.229 21.0868 172.56 20.572C173.89 20.0571 175.31 19.8175 176.734 19.8676C179.588 19.8277 182.34 20.9318 184.387 22.9371C186.433 24.9423 187.605 27.6846 187.646 30.561C187.605 33.4373 186.433 36.1797 184.387 38.1849C182.34 40.1902 179.588 41.2943 176.734 41.2544ZM176.734 11.2908C165.855 11.2908 157.037 19.926 157.037 30.587C157.037 41.2479 165.855 49.8832 176.734 49.8832C181.037 49.8939 185.228 48.4974 188.676 45.9032C190.718 49.2469 196.406 49.8832 196.406 49.8832V30.587C196.406 19.926 187.588 11.2908 176.715 11.2908" fill="#F58220"/>
<path d="M135.098 41.2544C132.245 41.2943 129.492 40.1902 127.446 38.1849C125.4 36.1796 124.228 33.4373 124.187 30.561C124.284 27.7094 125.476 25.0073 127.512 23.0247C129.548 21.0421 132.268 19.9339 135.098 19.9339C137.929 19.9339 140.649 21.0421 142.685 23.0247C144.72 25.0073 145.912 27.7094 146.01 30.561C145.99 31.9854 145.693 33.3921 145.134 34.7006C144.575 36.0091 143.766 37.1937 142.752 38.1868C141.739 39.1799 140.541 39.962 139.228 40.4883C137.915 41.0147 136.511 41.275 135.098 41.2544ZM135.098 11.2907C131.258 11.2811 127.496 12.3879 124.264 14.4786V11.4595C123.884 3.41514 117.333 0.837554 115.594 0H115.407V49.9935C115.407 49.9935 121.295 49.3442 123.498 46.1434C126.882 48.576 130.935 49.8813 135.092 49.8766C145.971 49.8766 154.789 41.2414 154.789 30.5804C154.789 19.9195 145.971 11.2842 135.092 11.2842" fill="#F58220"/>
</g>
<defs>
<clipPath id="clip0_98_36">
<rect width="204" height="50" fill="white"/>
</clipPath>
</defs>
</svg>
