<svg width="194" height="40" viewBox="0 0 194 40" fill="none" xmlns="http://www.w3.org/2000/svg">
<g clip-path="url(#clip0_8_13)">
<path fill-rule="evenodd" clip-rule="evenodd" d="M15.2948 28.4685C16.8829 31.0424 19.1075 33.1702 21.7573 34.6498C24.4071 36.1293 27.394 36.9113 30.434 36.9215C39.7664 36.9215 44.9511 28.8906 44.9511 28.8906L45.6251 31.0219C41.2907 36.6229 33.5448 40 24.8864 40C14.9111 40 6.30456 35.2741 2.34347 28.4582C0.822773 25.8923 0.0141624 22.972 0 19.9949C0 8.95753 11.1367 0 24.8864 0C34.5921 0 42.4106 4.1184 46.5065 10.1107L30.2163 19.7889L39.5487 5.62162C36.8941 3.96396 33.6278 2.40927 30.2163 2.40927C25.5989 2.45253 21.1844 4.29933 17.928 7.55C14.6717 10.8007 12.8354 15.1938 12.8165 19.7786C12.8152 22.846 13.6694 25.8537 15.2844 28.4685H15.2948Z" fill="#ED1C24"/>
<path fill-rule="evenodd" clip-rule="evenodd" d="M58.8974 28.4582C58.6962 29.7719 58.9049 31.1152 59.4954 32.3076C60.0859 33.5 61.0298 34.4843 62.2004 35.1282C63.3709 35.7722 64.712 36.0449 66.0432 35.9096C67.3745 35.7744 68.6321 35.2378 69.6471 34.3719C70.6622 33.5059 71.3858 32.3522 71.721 31.0658C72.0561 29.7794 71.9865 28.422 71.5217 27.176C71.0568 25.93 70.219 24.8552 69.1207 24.096C68.0224 23.3368 66.7164 22.9296 65.3782 22.9293C63.8134 22.9393 62.3031 23.5006 61.1162 24.5131C59.9293 25.5257 59.143 26.9237 58.8974 28.4582ZM83.2135 28.4582L86.4695 39.3514H75.0632L72.8027 31.9177C71.2991 36.2111 66.2181 39.3823 60.1935 39.3823C52.935 39.3823 47.1282 34.8521 47.1282 29.2716C47.1282 29.0142 47.1282 28.7465 47.1282 28.4891C47.6466 23.2793 53.2772 19.1712 60.1521 19.1712C63.7276 19.1051 67.2071 20.3226 69.9511 22.5998L66.8403 12.3038H53.7645C53.7645 12.3038 55.994 10.9241 65.6271 7.43377C75.2602 3.94342 78.371 12.2317 78.371 12.2317L83.2239 28.4582H83.2135Z" fill="#ED1C24"/>
<path fill-rule="evenodd" clip-rule="evenodd" d="M119.745 28.4581V39.3513H107.987V15.4439C107.993 14.6947 107.733 13.9672 107.253 13.3889C106.773 12.8105 106.104 12.4183 105.362 12.2808C104.62 12.1433 103.853 12.2693 103.196 12.6368C102.538 13.0043 102.032 13.5898 101.765 14.2908V39.3513H90.2135V12.2213H83.5149C83.5149 12.2213 92.8473 6.58936 96.124 6.58936C97.5708 6.60015 98.9591 7.1575 100.007 8.14815C101.055 9.1388 101.683 10.4884 101.765 11.9227C106.296 9.50313 110.786 6.58936 113.866 6.58936C115.397 6.58875 116.868 7.18114 117.966 8.24057C119.064 9.3 119.702 10.7429 119.745 12.2625V28.4581Z" fill="#ED1C24"/>
<path fill-rule="evenodd" clip-rule="evenodd" d="M137.861 28.4581L139.499 33.8326C139.526 34.9379 139.989 35.9884 140.788 36.7585C141.587 37.5286 142.658 37.9568 143.771 37.9511C144.918 37.9511 146.018 37.4987 146.829 36.6935C147.64 35.8884 148.095 34.7963 148.095 33.6576C148.105 33.493 148.105 33.328 148.095 33.1634L146.706 28.4478L141.822 11.8713C141.704 10.8201 141.2 9.84891 140.406 9.14401C139.612 8.43911 138.584 8.05005 137.519 8.05143C136.402 8.13026 135.344 8.57901 134.515 9.32576C133.686 10.0725 133.133 11.074 132.946 12.1698L137.892 28.3964L137.861 28.4581ZM156.526 28.4581C155.193 32.476 152.385 35.8479 148.661 37.9022C144.937 39.9565 140.57 40.5423 136.43 39.5431C132.29 38.5438 128.682 36.0328 126.323 32.5102C123.964 28.9876 123.028 24.7119 123.702 20.535C124.376 16.3581 126.61 12.5865 129.958 9.97152C133.307 7.35653 137.525 6.0901 141.772 6.42451C146.019 6.75892 149.983 8.66963 152.875 11.776C155.767 14.8824 157.374 18.9564 157.376 23.1866C157.377 24.9775 157.09 26.7571 156.526 28.4581Z" fill="#ED1C24"/>
<path fill-rule="evenodd" clip-rule="evenodd" d="M176.03 28.4581V39.3513H164.499V12.2213H158.049C158.049 12.2213 167.133 6.58936 170.378 6.58936C171.825 6.60015 173.214 7.1575 174.261 8.14815C175.309 9.1388 175.938 10.4884 176.019 11.9227C180.551 9.50313 185.041 6.58936 188.12 6.58936C189.651 6.58875 191.122 7.18114 192.22 8.24057C193.318 9.3 193.957 10.7429 194 12.2625V39.341H182.241V15.4439C182.247 14.6947 181.987 13.9672 181.508 13.3889C181.028 12.8105 180.358 12.4183 179.616 12.2808C178.875 12.1433 178.108 12.2693 177.45 12.6368C176.792 13.0043 176.286 13.5898 176.019 14.2908V28.4581H176.03Z" fill="#ED1C24"/>
</g>
<defs>
<clipPath id="clip0_8_13">
<rect width="194" height="40" fill="white"/>
</clipPath>
</defs>
</svg>
