<svg width="229" height="40" viewBox="0 0 229 40" fill="none" xmlns="http://www.w3.org/2000/svg">
<g clip-path="url(#clip0_98_45)">
<path d="M215.354 38.1154C222.433 38.1154 227.99 34.5918 229 27.0457L228.497 26.5421H226.475L225.968 27.0457C224.958 32.5775 221.424 35.599 215.354 35.599C207.774 35.599 202.212 30.0641 202.212 19.9986C202.212 9.93297 207.774 4.40263 215.354 4.40263C221.412 4.40263 224.958 7.41808 225.968 12.4509L226.475 12.9575H228.497L229 12.4509C227.99 5.40677 222.433 1.88623 215.354 1.88623C206.762 1.88623 199.178 7.92468 199.178 19.9986C199.178 32.0724 206.762 38.1154 215.354 38.1154ZM193.114 37.1082V2.89339L192.611 2.3883H189.072L188.561 2.89339L175.418 33.5862H174.911L161.778 2.89339L161.269 2.3883H157.734L157.225 2.89339V37.1082L157.734 37.6118H159.755L160.259 37.1082V7.92468H160.768L173.401 37.1082L173.908 37.6118H176.436L176.94 37.1082L189.576 7.92468H190.076V37.1082L190.582 37.6118H192.605L193.114 37.1082ZM150.658 37.1082V35.6005L150.151 35.0969H131.451L130.945 34.5934V21.5093L131.451 21.0072H149.141L149.645 20.5036V18.9974L149.141 18.4908H131.451L130.945 17.9888V5.40677L131.451 4.9047H150.151L150.658 4.40263V2.8949L150.151 2.38981H128.419L127.913 2.8949V37.1082L128.419 37.6118H150.151L150.658 37.1082Z" fill="#808080"/>
<path d="M119.877 30.6069V37.6072H97.0509V2.38975H105.087V30.6069H119.877ZM97.0509 2.38975H105.087H97.0509ZM14.3428 37.6133C18.2602 37.6133 22.0669 36.3193 25.1661 33.934C28.2653 31.5486 30.4817 28.2069 31.4678 24.4327L51.4841 40.0015L71.4868 24.4418V37.6133H94.311V30.6069H79.526V2.38975H71.4868V15.5597L52.2974 30.4862L48.0112 27.1466L57.1985 20L67.1945 12.2216L61.4907 7.77987L42.3029 22.7064L38.0152 19.3668L57.2046 4.44026L51.4841 0L31.4678 15.5703C30.4817 11.7961 28.2653 8.45439 25.1661 6.06906C22.0669 3.68374 18.2602 2.38967 14.3428 2.38975H0V37.6133H14.3428ZM8.0362 30.6069V9.39013H14.3428C19.6755 9.39013 23.9965 14.141 23.9965 20C23.9965 25.859 19.6755 30.6069 14.3428 30.6069H8.0362Z" fill="#007DB8"/>
</g>
<defs>
<clipPath id="clip0_98_45">
<rect width="229" height="40" fill="white"/>
</clipPath>
</defs>
</svg>
