<svg width="188" height="50" viewBox="0 0 188 50" fill="none" xmlns="http://www.w3.org/2000/svg">
<g clip-path="url(#clip0_98_88)">
<path d="M29.302 50L33.6615 35.9944H17.4708V31.79H34.9323L39.1064 18.2794H17.4708V14.3108H40.3076L44.7135 0H0V50H29.302ZM172.667 31.4524L163.211 0H139.038V50H154.13V18.6586H154.236L163.577 50H188V0H172.774V31.4524H172.667ZM123.831 37.1739C125.15 37.1802 126.457 36.924 127.675 36.4203C128.894 35.9165 129.999 35.1754 130.927 34.2403C131.855 33.3051 132.586 32.1948 133.078 30.9743C133.57 29.7538 133.813 28.4476 133.793 27.1323C133.793 21.5171 129.656 16.5495 124.081 16.5495C118.506 16.5495 114.091 21.5171 114.091 27.1323C114.091 32.7475 118.237 37.1739 123.831 37.1739ZM115.798 0H69.3174V14.3108H83.9869V50H107.598C106.123 49.1443 96.101 41.4015 96.101 26.8733C96.1056 14.8659 103.624 3.0296 115.798 0ZM52.5654 36.7438L48.4424 50H72.6241L68.7608 36.7438H52.5654ZM60.8115 9.58372L65.4494 25.5134H55.9882L60.8115 9.58372Z" fill="#007BC1"/>
</g>
<defs>
<clipPath id="clip0_98_88">
<rect width="188" height="50" fill="white"/>
</clipPath>
</defs>
</svg>
