<svg width="208" height="87" viewBox="0 0 208 87" fill="none" xmlns="http://www.w3.org/2000/svg">
<g clip-path="url(#clip0_98_60)">
<path d="M71.4529 20.6627H0V0H71.4529V20.6627ZM4.69726 15.9359H66.7557V4.72682H4.69726V15.9359Z" fill="#00A984"/>
<path d="M17.2785 33.686V53.5544H13.1562V45.2187H4.21974V53.5544H0.102325V33.686H4.21974V41.5804H13.1562V33.686H17.2785Z" fill="#1D1D1B"/>
<path d="M23.8371 47.2437C24.1587 49.6023 25.8642 50.5731 27.9838 50.5731C29.454 50.6008 30.8952 50.1597 32.1012 49.313V52.6129C30.9123 53.4857 29.3043 53.878 27.3747 53.878C22.9893 53.878 20.0072 51.0291 20.0072 46.4347C20.0072 41.8403 22.8382 38.7659 26.7607 38.7659C30.9415 38.7659 33.0952 41.6785 33.0952 45.9493V47.2437H23.8371ZM23.9638 44.6205H29.3969C29.3043 43.0661 28.4223 41.9678 26.8582 41.9678C25.5426 41.9678 24.417 42.8111 23.9638 44.6205Z" fill="#1D1D1B"/>
<path d="M48.5952 48.3076L51.1631 39.0894H55.0223L50.6369 53.5542H46.9872L44.6435 44.6841L42.2948 53.5542H38.6306L34.2452 39.0894H38.231L40.8038 48.3076L43.1524 39.0894H46.2076L48.5952 48.3076Z" fill="#1D1D1B"/>
<path d="M69.5185 47.2437C69.8401 49.6023 71.5455 50.5731 73.67 50.5731C75.1388 50.6014 76.5787 50.1602 77.7826 49.313V52.6129C76.5936 53.4857 74.9856 53.878 73.0561 53.878C68.6707 53.878 65.6935 51.0291 65.6935 46.4347C65.6935 41.8403 68.5245 38.7659 72.447 38.7659C76.6277 38.7659 78.7815 41.6785 78.7815 45.9493V47.2437H69.5185ZM69.6501 44.6205H75.0831C74.9856 43.0661 74.1086 41.9678 72.5396 41.9678C71.2239 41.9678 70.0983 42.8111 69.6501 44.6205Z" fill="#1D1D1B"/>
<path d="M111.19 46.6603V53.5544H107.106V33.686H115.146C119.327 33.686 122.09 35.9465 122.09 40.1879C122.09 44.4293 119.327 46.6603 115.146 46.6603H111.19ZM114.888 37.2115H111.19V43.1495H114.888C117.008 43.1495 118.041 41.9187 118.041 40.2075C118.041 38.4962 117.008 37.2115 114.888 37.2115Z" fill="#1D1D1B"/>
<path d="M131.864 44.5223C131.864 43.1347 130.675 42.257 128.648 42.257C127.264 42.2557 125.909 42.6613 124.75 43.424V39.9622C126.221 39.1581 127.872 38.7462 129.545 38.7658C133.497 38.7658 135.719 40.8007 135.719 44.3311V53.5543H131.889V52.7747C131.402 53.265 129.993 53.8093 128.419 53.8093C125.525 53.8093 123.113 52.1274 123.113 49.1168C123.113 46.3709 125.525 44.4929 128.673 44.4929C129.799 44.4846 130.908 44.7737 131.889 45.3314L131.864 44.5223ZM131.864 48.5676C131.514 47.7929 130.451 47.3074 129.326 47.3074C128.073 47.3074 126.787 47.8566 126.787 49.0873C126.787 50.3181 128.073 50.8673 129.326 50.8673C130.451 50.8673 131.514 50.3769 131.864 49.6022V48.5676Z" fill="#1D1D1B"/>
<path d="M145.859 38.7657C147.246 38.703 148.616 39.1009 149.757 39.8984V43.5514C148.824 42.6999 147.605 42.2371 146.346 42.2569C144.226 42.2569 142.55 43.7279 142.55 46.3365C142.55 48.945 144.226 50.4111 146.346 50.4111C147.603 50.4171 148.817 49.9561 149.757 49.1167V52.7451C148.616 53.5426 147.246 53.9405 145.859 53.8778C141.775 53.8778 138.594 50.9652 138.594 46.3365C138.594 41.7077 141.795 38.7657 145.859 38.7657Z" fill="#1D1D1B"/>
<path d="M166.831 53.5544H162.168L156.993 46.8858V53.5544H153.002V32.519H156.993V44.8166L161.909 39.0895H166.704L160.72 45.7237L166.831 53.5544Z" fill="#1D1D1B"/>
<path d="M176.186 44.5223C176.186 43.1346 174.997 42.2569 172.975 42.2569C171.581 42.2508 170.215 42.6565 169.048 43.4239V39.9622C170.519 39.1587 172.169 38.7468 173.843 38.7658C177.794 38.7658 180.016 40.8007 180.016 44.3311V53.5542H176.186V52.7746C175.699 53.2649 174.291 53.8092 172.717 53.8092C169.823 53.8092 167.411 52.1274 167.411 49.1167C167.411 46.3708 169.823 44.4929 172.975 44.4929C174.1 44.4852 175.207 44.7743 176.186 45.3313V44.5223ZM176.186 48.5675C175.835 47.7928 174.773 47.3074 173.648 47.3074C172.395 47.3074 171.109 47.8566 171.109 49.0873C171.109 50.318 172.395 50.8672 173.648 50.8672C174.773 50.8672 175.835 50.3769 176.186 49.6021V48.5675Z" fill="#1D1D1B"/>
<path d="M192.529 43.0367C191.919 42.7004 191.232 42.5313 190.536 42.5464C189.187 42.5464 188.1 43.2574 187.803 44.5862V53.5495H183.817V39.0895H187.803V40.5115C188.142 39.9649 188.617 39.5165 189.181 39.2105C189.745 38.9044 190.378 38.7512 191.019 38.7659C191.534 38.7463 192.048 38.8331 192.529 39.0209V43.0367Z" fill="#1D1D1B"/>
<path d="M203.98 52.3531C203.513 52.8404 202.953 53.2269 202.333 53.4891C201.713 53.7512 201.047 53.8836 200.374 53.878C196.198 53.878 193.85 50.48 193.85 46.3367C193.85 42.1933 196.198 38.7659 200.374 38.7659C201.046 38.7594 201.713 38.8908 202.333 39.1522C202.953 39.4135 203.513 39.7993 203.98 40.2859V32.519H208V53.5544H203.98V52.3531ZM203.98 43.9438C203.727 43.4395 203.341 43.0151 202.864 42.7175C202.387 42.4199 201.837 42.2606 201.276 42.2571C199.122 42.2571 197.836 44.0076 197.836 46.3367C197.836 48.6658 199.122 50.3819 201.276 50.3819C201.839 50.3892 202.392 50.2348 202.871 49.9369C203.35 49.6391 203.735 49.21 203.98 48.7001V43.9438Z" fill="#1D1D1B"/>
<path d="M63.5543 51.083C63.2918 51.1098 63.0266 51.0775 62.778 50.9884C62.5295 50.8993 62.3037 50.7557 62.1171 50.5679C61.9305 50.3802 61.7878 50.153 61.6992 49.9028C61.6107 49.6527 61.5786 49.3858 61.6053 49.1216H61.6686V33.833H57.6779V49.3423C57.6779 52.6079 59.7049 54.4859 62.7601 54.4859C63.518 54.5161 64.2737 54.3841 64.9772 54.0985V50.7005C64.5534 50.9726 64.0565 51.1062 63.5543 51.083Z" fill="#1D1D1B"/>
<path d="M96.4157 42.9777H100.046V39.717H96.4157V33.833H92.4298V39.717H86.6703V33.833H82.6845V39.717H80.0678V42.9826H82.6845V49.357C82.6845 52.6226 84.7115 54.5006 87.7667 54.5006C88.5246 54.5308 89.2803 54.3988 89.9837 54.1132V50.7152C89.5612 50.9863 89.0666 51.1215 88.5658 51.1026C88.3033 51.1294 88.0381 51.0971 87.7895 51.008C87.5409 50.9189 87.3151 50.7753 87.1285 50.5875C86.9419 50.3998 86.7992 50.1726 86.7107 49.9224C86.6222 49.6723 86.5901 49.4054 86.6167 49.1412H86.6752V42.9777H92.4347V49.3521C92.4347 52.6177 94.4569 54.4957 97.512 54.4957C98.2716 54.5266 99.029 54.3945 99.734 54.1083V50.7103C99.3114 50.9814 98.8168 51.1166 98.316 51.0977C98.0535 51.1245 97.7883 51.0922 97.5397 51.0031C97.2911 50.914 97.0654 50.7704 96.8788 50.5826C96.6922 50.3949 96.5494 50.1677 96.4609 49.9175C96.3724 49.6674 96.3403 49.4005 96.3669 49.1363H96.4254L96.4157 42.9777Z" fill="#1D1D1B"/>
<path d="M13.0003 61.4341V63.7436H2.85539V70.0689H12.0599V72.3489H2.85539V79.1646H13.0003V81.4789H0.331345V61.4341H13.0003Z" fill="#1D1D1B"/>
<path d="M16.8205 66.9798H19.2568V68.8038C19.7552 68.1477 20.3965 67.6155 21.1315 67.2483C21.8665 66.881 22.6755 66.6885 23.4961 66.6855C26.7705 66.6855 28.5539 68.8038 28.5539 71.9664V81.4544H26.0883V72.3587C26.0883 70.3385 25.0845 68.9264 22.9162 68.9264C22.1009 68.9352 21.3088 69.2011 20.6515 69.6866C19.9941 70.1722 19.5047 70.8529 19.252 71.633V81.4397H16.8156L16.8205 66.9798Z" fill="#1D1D1B"/>
<path d="M44.0734 74.6388C44.1708 77.9976 46.2758 79.596 48.9022 79.596C50.3818 79.6446 51.83 79.1594 52.9855 78.228V80.4787C51.816 81.3907 50.325 81.7486 48.6001 81.7486C44.4534 81.7486 41.6663 78.9145 41.6663 74.3495C41.6663 69.7845 44.2683 66.6855 48.0933 66.6855C51.9184 66.6855 53.9893 69.5246 53.9893 73.7611V74.6388H44.0734ZM44.2049 72.7167H51.6211C51.5237 70.5984 50.4566 68.794 48.1226 68.794C46.2125 68.7744 44.6581 70.0443 44.2049 72.7167Z" fill="#1D1D1B"/>
<path d="M64.6799 69.4264C64.1877 69.1461 63.6273 69.0102 63.0622 69.0342C62.2857 69.0464 61.5354 69.3194 60.9307 69.8098C60.326 70.3002 59.9014 70.9798 59.7244 71.7408V81.4543H57.2881V66.9797H59.7244V68.8724C60.0616 68.214 60.5722 67.6618 61.2005 67.276C61.8287 66.8903 62.5504 66.686 63.2864 66.6855C63.7612 66.6664 64.235 66.7431 64.6799 66.911V69.4264Z" fill="#1D1D1B"/>
<path d="M69.6354 87.0001H67.1991V66.9798H69.6354V68.6763C70.1153 68.0551 70.7302 67.5526 71.4329 67.2076C72.1356 66.8625 72.9076 66.6839 73.6895 66.6856C77.9336 66.6856 80.1702 70.2062 80.1702 74.2171C80.1702 78.228 77.9336 81.7486 73.6895 81.7486C72.9081 81.7501 72.1367 81.572 71.4341 81.2278C70.7315 80.8837 70.1163 80.3826 69.6354 79.7628V87.0001ZM69.6354 77.1542C69.9695 77.8587 70.4931 78.4549 71.1468 78.8753C71.8005 79.2956 72.5581 79.5232 73.3338 79.5323C76.0869 79.5323 77.7192 77.2817 77.7192 74.2171C77.7192 71.1525 76.1015 68.9019 73.3338 68.9019C72.5575 68.9108 71.7992 69.139 71.1454 69.5603C70.4915 69.9816 69.9684 70.5791 69.6354 71.2849V77.1542Z" fill="#1D1D1B"/>
<path d="M91.3481 69.4264C90.8557 69.1466 90.2954 69.0108 89.7304 69.0342C88.9536 69.0456 88.2029 69.3182 87.598 69.8088C86.9931 70.2993 86.5688 70.9794 86.3926 71.7408V81.4543H83.9562V66.9797H86.3926V68.8724C86.7297 68.214 87.2404 67.6618 87.8686 67.276C88.4969 66.8903 89.2185 66.686 89.9545 66.6855C90.4293 66.6664 90.9032 66.7431 91.3481 66.911V69.4264Z" fill="#1D1D1B"/>
<path d="M95.563 64.1748C95.1523 64.1698 94.7598 64.0033 94.4694 63.7111C94.179 63.4188 94.0136 63.0239 94.0086 62.6107C94.0309 62.2065 94.2063 61.8263 94.4985 61.5481C94.7908 61.27 95.1778 61.115 95.58 61.115C95.9823 61.115 96.3693 61.27 96.6615 61.5481C96.9538 61.8263 97.1291 62.2065 97.1515 62.6107C97.1438 63.0291 96.9729 63.4276 96.6757 63.7203C96.3785 64.0129 95.9788 64.1762 95.563 64.1748ZM96.7909 81.4542H94.3545V66.9796H96.7909V81.4542Z" fill="#1D1D1B"/>
<path d="M100.294 77.7082C101.567 78.943 103.258 79.6442 105.026 79.6695C106.609 79.6695 108.003 79.0811 108.003 77.6445C108.003 76.5706 107.194 75.9822 105.932 75.5605L103.954 74.8741C101.785 74.1582 100.324 73.1138 100.324 70.7651C100.324 68.2202 102.56 66.6904 105.411 66.6904C106.932 66.6663 108.424 67.1093 109.689 67.9604V70.5052C108.523 69.4186 106.999 68.8039 105.411 68.7792C103.92 68.7792 102.692 69.4314 102.692 70.667C102.692 71.9026 103.466 72.2312 104.831 72.7215L107.033 73.4717C109.202 74.2219 110.4 75.4919 110.4 77.5464C110.4 80.2236 108.037 81.7535 105.04 81.7535C103.352 81.7911 101.696 81.2899 100.309 80.3217L100.294 77.7082Z" fill="#1D1D1B"/>
<path d="M115.229 74.6388C115.327 77.9976 117.432 79.596 120.058 79.596C121.538 79.6446 122.986 79.1594 124.141 78.228V80.4787C122.972 81.3907 121.486 81.7486 119.756 81.7486C115.609 81.7486 112.822 78.9145 112.822 74.3495C112.822 69.7845 115.424 66.6855 119.249 66.6855C123.074 66.6855 125.145 69.5246 125.145 73.7611V74.6388H115.229ZM115.361 72.7167H122.791C122.694 70.5984 121.622 68.794 119.288 68.794C117.368 68.7744 115.814 70.0443 115.361 72.7167Z" fill="#1D1D1B"/>
<path d="M38.5185 79.5958C37.0908 79.5958 36.1553 78.6838 36.1553 76.9578V75.7075H36.2137V69.0488H40.0291V67.0041H36.2137V63.4099H33.7774V67.0041H30.4494V69.0488H33.7579V77.154C33.7579 80.0519 35.6339 81.7484 38.1433 81.7484C38.7856 81.7702 39.4256 81.6601 40.0242 81.4248V79.2036C39.5687 79.4737 39.047 79.6096 38.5185 79.5958Z" fill="#1D1D1B"/>
</g>
<defs>
<clipPath id="clip0_98_60">
<rect width="208" height="87" fill="white"/>
</clipPath>
</defs>
</svg>
