<svg width="81" height="81" viewBox="0 0 81 81" fill="none" xmlns="http://www.w3.org/2000/svg">
<g clip-path="url(#clip0_9_44)">
<path fill-rule="evenodd" clip-rule="evenodd" d="M65.0027 28.1132H58.5575L49.5259 52.8982H55.9726L65.0027 28.1175V28.1132ZM40.4957 81C40.0968 81 39.6951 80.9914 39.2962 80.98L47.5729 58.2323H58.9607C60.9623 58.2323 63.1584 56.6969 63.8404 54.8183L72.8191 30.1534C74.2917 26.1131 71.9813 22.8134 67.6721 22.8134H51.8764L38.6185 59.246L31.0952 79.8963C13.2665 75.6616 0 59.6263 0 40.5C0 21.9227 12.5101 6.26486 29.5683 1.49402L21.8106 22.8134L8.91295 58.2323H17.4913L28.4574 28.1361H34.914L23.948 58.2323H32.5264L42.749 30.1534C44.2187 26.1131 41.9083 22.8134 37.6134 22.8134H30.3947L38.6771 0.0457498C39.2833 0.0157265 39.8895 0 40.4957 0C62.8696 0 81 18.1326 81 40.5C81 62.8674 62.8696 81 40.4957 81Z" fill="#0096D6"/>
</g>
<defs>
<clipPath id="clip0_9_44">
<rect width="81" height="81" fill="white"/>
</clipPath>
</defs>
</svg>
