<svg width="191" height="63" viewBox="0 0 191 63" fill="none" xmlns="http://www.w3.org/2000/svg">
<g clip-path="url(#clip0_98_117)">
<path d="M0 63H191V0H0V63Z" fill="#E1251B"/>
<path d="M83.2044 21.2332C80.3848 21.2332 77.176 22.5266 75.2147 25.1171V21.6407H68.4915V45.8872H75.2194V32.0901C75.2194 29.6095 77.1652 26.967 80.768 26.967C83.5518 26.967 86.4323 28.883 86.4323 32.0901V45.8872H93.1615V30.8557C93.1615 25.2801 89.1302 21.2332 83.2092 21.2332" fill="white"/>
<path d="M140.984 21.6406L134.901 38.1581L128.818 21.6406H121.132L131.215 45.8788H138.587L148.67 21.6406H140.984Z" fill="white"/>
<path d="M48.4041 28.9409C49.5501 27.4183 51.3754 26.5252 53.5802 26.5252C56.0047 26.5252 57.8443 27.8955 58.7957 29.9166L47.0397 34.7421C46.7185 32.2673 47.3596 30.3301 48.4041 28.9409ZM61.3312 38.4276C58.4997 40.5007 56.8809 40.9968 54.2989 40.9968C51.9746 40.9968 50.1554 40.2822 48.8721 39.03L66.074 31.9685C65.6992 29.3366 64.6905 26.9859 63.1362 25.1987C60.8764 22.5999 57.5315 21.2273 53.4585 21.2273C46.0572 21.2273 40.4812 26.628 40.4812 33.7616C40.4812 41.0842 46.0787 46.3054 54.1962 46.3054C58.7492 46.3054 63.4048 44.1697 65.5822 41.6749L61.3277 38.4382L61.3312 38.4276Z" fill="white"/>
<path d="M39.839 39.773H24.5458V14.3889H17.726V45.886H39.839V39.773Z" fill="white"/>
<path d="M160.752 26.9328C156.994 26.9328 154.266 29.7501 154.266 33.7593C154.266 37.5865 157.156 40.5857 160.842 40.5857C164.6 40.5857 167.328 37.6905 167.328 33.7593C167.328 29.9308 164.439 26.9328 160.752 26.9328ZM160.752 46.2912C153.392 46.2912 147.627 40.8657 147.627 33.7593C147.627 26.732 153.433 21.2273 160.842 21.2273C168.201 21.2273 173.965 26.6516 173.965 33.7593C173.965 40.7854 168.161 46.2912 160.752 46.2912Z" fill="white"/>
<path d="M108.946 26.9327C105.188 26.9327 102.462 29.75 102.462 33.7592C102.462 37.5864 105.351 40.5857 109.038 40.5857C112.796 40.5857 115.524 37.6904 115.524 33.7592C115.524 29.9307 112.634 26.9327 108.946 26.9327ZM108.946 46.2911C101.588 46.2959 95.8235 40.8715 95.8235 33.7639C95.8235 26.7366 101.627 21.2319 109.038 21.2319C116.395 21.2319 122.161 26.6563 122.161 33.7639C122.161 40.79 116.356 46.2959 108.946 46.2959" fill="white"/>
<path d="M177.404 42.3953H178.121L179.187 44.049L180.251 42.3953H180.951V45.8871H180.298V43.4064L179.209 45.085H179.14L178.053 43.4064V45.8871H177.4V42.3953H177.404ZM174.884 43.0083H173.797V42.3953H176.649V43.0083H175.56V45.8871H174.884V43.0083Z" fill="white"/>
</g>
<defs>
<clipPath id="clip0_98_117">
<rect width="191" height="63" fill="white"/>
</clipPath>
</defs>
</svg>
