<svg width="60" height="60" viewBox="0 0 60 60" fill="none" xmlns="http://www.w3.org/2000/svg">
<g clip-path="url(#clip0_99_129)">
<path d="M30 60C46.5685 60 60 46.5685 60 30C60 13.4315 46.5685 0 30 0C13.4315 0 0 13.4315 0 30C0 46.5685 13.4315 60 30 60Z" fill="white"/>
<path d="M12.4855 29.74L32.688 21.4162C34.6822 20.5492 41.4455 17.7747 41.4455 17.7747C41.4455 17.7747 44.567 16.561 44.3067 19.5087C44.22 20.7225 43.5267 24.9712 42.8327 29.5662L40.6652 43.1787C40.6652 43.1787 40.4917 45.173 39.0152 45.5197C37.5387 45.8665 35.1135 44.306 34.6802 43.959C34.3335 43.699 28.1772 39.7973 25.9227 37.8898C25.3157 37.3698 24.6222 36.329 26.0095 35.1152C29.131 32.254 32.8595 28.699 35.1135 26.4447C36.154 25.4042 37.1945 22.9765 32.8592 25.9247L20.6337 34.1618C20.6337 34.1618 19.2462 35.0288 16.6452 34.2485C14.0442 33.4683 11.0095 32.4277 11.0095 32.4277C11.0095 32.4277 8.92849 31.1272 12.4835 29.7402L12.4855 29.74Z" fill="#293BDC"/>
</g>
<defs>
<clipPath id="clip0_99_129">
<rect width="60" height="60" fill="white"/>
</clipPath>
</defs>
</svg>
