<svg width="54" height="54" viewBox="0 0 54 54" fill="none" xmlns="http://www.w3.org/2000/svg">
<path d="M29.7166 50.4692L31.0075 51.2333L29.7166 50.4692ZM31.0719 48.1796L29.781 47.4155L31.0719 48.1796ZM22.928 48.1796L21.6372 48.9436L22.928 48.1796ZM24.2833 50.4692L25.5741 49.7052L24.2833 50.4692ZM30.75 3.5C31.5784 3.5 32.25 2.82843 32.25 2C32.25 1.17157 31.5784 0.5 30.75 0.5V3.5ZM53.5 23.25C53.5 22.4216 52.8284 21.75 52 21.75C51.1716 21.75 50.5 22.4216 50.5 23.25H53.5ZM2.95151 36.7835L4.33733 36.2095L2.95151 36.7835ZM16.4739 44.4786L16.4481 45.9784H16.4481L16.4739 44.4786ZM9.71646 43.5485L9.14243 44.9343H9.14243L9.71646 43.5485ZM51.0485 36.7835L52.4343 37.3576L51.0485 36.7835ZM37.5259 44.4786L37.5001 42.9789L37.5259 44.4786ZM44.2835 43.5485L44.8576 44.9343L44.2835 43.5485ZM7.96877 3.842L7.18502 2.56304L7.96877 3.842ZM3.842 7.96877L2.56304 7.18502L3.842 7.96877ZM20.507 45.0246L21.2611 43.728L21.2611 43.728L20.507 45.0246ZM31.0075 51.2333L32.3627 48.9436L29.781 47.4155L28.4258 49.7052L31.0075 51.2333ZM21.6372 48.9436L22.9924 51.2333L25.5741 49.7052L24.2188 47.4155L21.6372 48.9436ZM28.4258 49.7052C27.7987 50.7647 26.2012 50.7647 25.5741 49.7052L22.9924 51.2333C24.7812 54.2553 29.2187 54.2553 31.0075 51.2333L28.4258 49.7052ZM23.25 3.5H30.75V0.5H23.25V3.5ZM50.5 23.25V25.75H53.5V23.25H50.5ZM3.5 25.75V23.25H0.5V25.75H3.5ZM0.5 25.75C0.5 28.6416 0.499188 30.8854 0.622418 32.6916C0.746567 34.5111 1.00161 35.9958 1.56569 37.3576L4.33733 36.2095C3.9499 35.2742 3.72919 34.1542 3.61546 32.4873C3.50081 30.807 3.5 28.6827 3.5 25.75H0.5ZM16.4998 42.9789C13.3612 42.9248 11.6519 42.7266 10.2905 42.1627L9.14243 44.9343C11.0825 45.7379 13.3099 45.9243 16.4481 45.9784L16.4998 42.9789ZM1.56569 37.3576C2.9866 40.788 5.71204 43.5134 9.14243 44.9343L10.2905 42.1627C7.59517 41.0462 5.45376 38.9048 4.33733 36.2095L1.56569 37.3576ZM50.5 25.75C50.5 28.6827 50.4992 30.807 50.3845 32.4873C50.2708 34.1542 50.0501 35.2742 49.6627 36.2095L52.4343 37.3576C52.9984 35.9958 53.2534 34.5111 53.3776 32.6916C53.5008 30.8854 53.5 28.6416 53.5 25.75H50.5ZM37.5518 45.9784C40.6901 45.9243 42.9175 45.7379 44.8576 44.9343L43.7095 42.1627C42.3481 42.7266 40.6387 42.9248 37.5001 42.9789L37.5518 45.9784ZM49.6627 36.2095C48.5462 38.9048 46.4048 41.0462 43.7095 42.1627L44.8576 44.9343C48.288 43.5134 51.0134 40.788 52.4343 37.3576L49.6627 36.2095ZM23.25 0.5C19.1873 0.5 16.0349 0.498417 13.5258 0.736984C10.9943 0.977674 8.96325 1.47334 7.18502 2.56304L8.75252 5.12096C9.98015 4.36866 11.4979 3.94333 13.8097 3.72352C16.1439 3.50158 19.1292 3.5 23.25 3.5V0.5ZM3.5 23.25C3.5 19.1292 3.50158 16.1439 3.72352 13.8097C3.94333 11.4979 4.36866 9.98015 5.12096 8.75252L2.56304 7.18502C1.47334 8.96325 0.977674 10.9943 0.736984 13.5258C0.498417 16.0349 0.5 19.1873 0.5 23.25H3.5ZM7.18502 2.56304C5.30124 3.71742 3.71742 5.30124 2.56304 7.18502L5.12096 8.75252C6.02797 7.27241 7.27241 6.02797 8.75252 5.12096L7.18502 2.56304ZM24.2188 47.4155C23.7077 46.5519 23.2724 45.8134 22.8521 45.2367C22.4134 44.6348 21.9261 44.1147 21.2611 43.728L19.7528 46.3212C19.9321 46.4255 20.1297 46.5949 20.4277 47.0037C20.7441 47.4378 21.0972 48.0313 21.6372 48.9436L24.2188 47.4155ZM16.4481 45.9784C17.5389 45.9972 18.2546 46.011 18.806 46.0721C19.3296 46.1301 19.5785 46.2199 19.7528 46.3212L21.2611 43.728C20.5912 43.3383 19.8865 43.1734 19.1362 43.0903C18.4136 43.0103 17.5349 42.9967 16.4998 42.9789L16.4481 45.9784ZM32.3627 48.9436C32.9027 48.0313 33.2558 47.4378 33.5722 47.0037C33.8701 46.5949 34.0678 46.4255 34.2471 46.3212L32.7388 43.728C32.0738 44.1147 31.5865 44.6348 31.1478 45.2367C30.7275 45.8134 30.2922 46.5519 29.781 47.4155L32.3627 48.9436ZM37.5001 42.9789C36.465 42.9967 35.5863 43.0103 34.8637 43.0903C34.1134 43.1734 33.4087 43.3383 32.7388 43.728L34.2471 46.3212C34.4214 46.2199 34.6703 46.1301 35.1939 46.0721C35.7453 46.011 36.461 45.9972 37.5518 45.9784L37.5001 42.9789Z" fill="#293BDC"/>
<circle cx="44.5" cy="9.5" r="7.5" stroke="#293BDC" stroke-width="3"/>
</svg>
