<svg width="54" height="54" viewBox="0 0 54 54" fill="none" xmlns="http://www.w3.org/2000/svg">
<path d="M12 17.2687C12 8.83602 18.7157 2 27 2C35.2843 2 42 8.83602 42 17.2687C42 25.6353 37.2125 35.3983 29.743 38.8896C28.0017 39.7035 25.9983 39.7035 24.257 38.8896C16.7875 35.3983 12 25.6353 12 17.2687Z" stroke="#293BDC" stroke-width="3"/>
<path d="M32 17C32 19.7614 29.7614 22 27 22C24.2386 22 22 19.7614 22 17C22 14.2386 24.2386 12 27 12C29.7614 12 32 14.2386 32 17Z" stroke="#293BDC" stroke-width="3"/>
<path d="M27 48.7188L27.9878 49.8476C28.3133 49.5628 28.5 49.1513 28.5 48.7188C28.5 48.2862 28.3133 47.8747 27.9878 47.5899L27 48.7188ZM50.3329 33.3243C49.6835 32.8098 48.7401 32.9192 48.2256 33.5685C47.7112 34.2178 47.8205 35.1612 48.4698 35.6757L50.3329 33.3243ZM5.53019 35.6757C6.17951 35.1612 6.28883 34.2178 5.77436 33.5685C5.25989 32.9192 4.31646 32.8098 3.66714 33.3243L5.53019 35.6757ZM23.25 45.4375L24.2378 44.3086C23.7948 43.9211 23.1661 43.8283 22.6302 44.0716C22.0942 44.3148 21.75 44.8489 21.75 45.4375H23.25ZM23.25 52H21.75C21.75 52.5886 22.0942 53.1227 22.6302 53.3659C23.1661 53.6092 23.7948 53.5164 24.2378 53.1289L23.25 52ZM33.0988 46.9163C32.2746 46.9998 31.6741 47.7357 31.7576 48.5599C31.8412 49.3841 32.577 49.9845 33.4012 49.901L33.0988 46.9163ZM23.3387 47.1114C17.4501 46.7626 12.3298 45.59 8.73401 43.9592C6.93363 43.1426 5.58503 42.2425 4.70706 41.3347C3.83584 40.4339 3.5 39.6076 3.5 38.875H0.5C0.5 40.6097 1.31689 42.1448 2.55065 43.4204C3.77765 44.689 5.48627 45.7803 7.49487 46.6913C11.5171 48.5155 17.0217 49.7425 23.1613 50.1061L23.3387 47.1114ZM48.4698 35.6757C49.9498 36.8483 50.5 37.9467 50.5 38.875H53.5C53.5 36.6602 52.1796 34.7875 50.3329 33.3243L48.4698 35.6757ZM3.5 38.875C3.5 37.9467 4.0502 36.8483 5.53019 35.6757L3.66714 33.3243C1.82039 34.7875 0.5 36.6602 0.5 38.875H3.5ZM27.9878 47.5899L24.2378 44.3086L22.2622 46.5664L26.0122 49.8476L27.9878 47.5899ZM21.75 45.4375V48.6087H24.75V45.4375H21.75ZM21.75 48.6087V52H24.75V48.6087H21.75ZM24.2378 53.1289L27.9878 49.8476L26.0122 47.5899L22.2622 50.8711L24.2378 53.1289ZM50.5 38.875C50.5 40.2469 49.2508 41.9803 45.9965 43.611C42.8686 45.1784 38.3724 46.3818 33.0988 46.9163L33.4012 49.901C38.9103 49.3427 43.7891 48.0727 47.3405 46.2931C50.7655 44.5769 53.5 42.0898 53.5 38.875H50.5Z" fill="#293BDC"/>
</svg>
